ffmpeg started on 2025-06-07 at 17:54:51
Report written to "D:\Convert\FFMetrics\reports\psnr_report-6.txt"
Log level: 32
Command line:
ffmpeg -hide_banner -nostdin -i "G:\\\xc0\xed\xe8\xec\xe5\\\xce\xed\xe3\xee\xe8\xed\xe3\xe8\\!_36_\xce\xf1\xe5\xed\xfc_2024\\DreamCast\\\xdd\xe9, \xd2\xee\xec\xe1\xee!\\\xd2\xc2-2\\[DC] Tonbo 2 - 10_Telegram_HEVC.mkv" -i "G:\\\xc0\xed\xe8\xec\xe5\\\xce\xed\xe3\xee\xe8\xed\xe3\xe8\\!_36_\xce\xf1\xe5\xed\xfc_2024\\DreamCast\\\xdd\xe9, \xd2\xee\xec\xe1\xee!\\\xd2\xc2-2\\[DC] Tonbo 2 - 10_Telegram.mp4" -lavfi "[0:v]settb=AVTB,setpts=PTS-STARTPTS,format=pix_fmts=yuv420p10,fps=24000/1001,scale=1920:1080:flags=bicubic[main];[1:v]settb=AVTB,setpts=PTS-STARTPTS,format=pix_fmts=yuv420p,fps=24000/1001,scale=1920:1080:flags=bicubic[ref];[main][ref]psnr=eof_action=endall:stats_file='D\\:/Convert/FFMetrics/logs/psnr_logfile-6.txt'" -f null -
Input #0, matroska,webm, from 'G:\Аниме\Онгоинги\!_36_Осень_2024\DreamCast\Эй, Томбо!\ТВ-2\[DC] Tonbo 2 - 10_Telegram_HEVC.mkv':
  Metadata:
    COMPATIBLE_BRANDS: isomiso2avc1mp41
    MAJOR_BRAND     : isom
    MINOR_VERSION   : 512
    ENCODER         : Lavf61.7.100
  Duration: 00:24:20.74, start: -0.021000, bitrate: 1678 kb/s
  Stream #0:0: Video: hevc (Main 10), yuv420p10le(tv, bt709, progressive), 1920x1080 [SAR 1:1 DAR 16:9], 23.98 fps, 23.98 tbr, 1k tbn (default)
      Metadata:
        HANDLER_NAME    : VideoHandler
        VENDOR_ID       : [0][0][0][0]
        ENCODER         : Lavc61.19.100 libx265
        BPS             : 1481928
        DURATION        : 00:24:19.624708333
        NUMBER_OF_FRAMES: 34996
        NUMBER_OF_BYTES : 270382333
        _STATISTICS_WRITING_APP: mkvpropedit v66.0.0 ('Josie') 64-bit
        _STATISTICS_WRITING_DATE_UTC: 2025-06-06 08:41:21
        _STATISTICS_TAGS: BPS DURATION NUMBER_OF_FRAMES NUMBER_OF_BYTES
  Stream #0:1: Audio: aac (LC), 48000 Hz, stereo, fltp (default)
      Metadata:
        HANDLER_NAME    : SoundHandler
        VENDOR_ID       : [0][0][0][0]
        ENCODER         : Lavc61.19.100 aac
        BPS             : 193293
        DURATION        : 00:24:20.736000000
        NUMBER_OF_FRAMES: 68473
        NUMBER_OF_BYTES : 35293844
        _STATISTICS_WRITING_APP: mkvpropedit v66.0.0 ('Josie') 64-bit
        _STATISTICS_WRITING_DATE_UTC: 2025-06-06 08:41:21
        _STATISTICS_TAGS: BPS DURATION NUMBER_OF_FRAMES NUMBER_OF_BYTES
Input #1, mov,mp4,m4a,3gp,3g2,mj2, from 'G:\Аниме\Онгоинги\!_36_Осень_2024\DreamCast\Эй, Томбо!\ТВ-2\[DC] Tonbo 2 - 10_Telegram.mp4':
  Metadata:
    major_brand     : isom
    minor_version   : 512
    compatible_brands: isomiso2avc1mp41
    encoder         : Lavf61.1.100
  Duration: 00:24:20.70, start: 0.000000, bitrate: 3611 kb/s
  Stream #1:0[0x1](und): Video: h264 (High) (avc1 / 0x31637661), yuv420p(tv, bt709, progressive), 1920x1080 [SAR 1:1 DAR 16:9], 3466 kb/s, 23.98 fps, 23.98 tbr, 24k tbn (default)
      Metadata:
        handler_name    : VideoHandler
        vendor_id       : [0][0][0][0]
        encoder         : Lavc61.3.100 h264_qsv
  Stream #1:1[0x2](und): Audio: aac (HE-AACv2) (mp4a / 0x6134706D), 48000 Hz, stereo, fltp, 144 kb/s (default)
      Metadata:
        handler_name    : SoundHandler
        vendor_id       : [0][0][0][0]
Stream mapping:
  Stream #0:0 (hevc) -> settb:default
  Stream #1:0 (h264) -> settb:default
  psnr:default -> Stream #0:0 (wrapped_avframe)
  Stream #0:1 -> #0:1 (aac (native) -> pcm_s16le (native))
Output #0, null, to 'pipe:':
  Metadata:
    COMPATIBLE_BRANDS: isomiso2avc1mp41
    MAJOR_BRAND     : isom
    MINOR_VERSION   : 512
    encoder         : Lavf61.7.100
  Stream #0:0: Video: wrapped_avframe, yuv420p10le(tv, bt709, progressive), 1920x1080 [SAR 1:1 DAR 16:9], q=2-31, 200 kb/s, 23.98 fps, 23.98 tbn
      Metadata:
        encoder         : Lavc61.19.100 wrapped_avframe
  Stream #0:1: Audio: pcm_s16le, 48000 Hz, stereo, s16, 1536 kb/s (default)
      Metadata:
        HANDLER_NAME    : SoundHandler
        VENDOR_ID       : [0][0][0][0]
        _STATISTICS_TAGS: BPS DURATION NUMBER_OF_FRAMES NUMBER_OF_BYTES
        BPS             : 193293
        DURATION        : 00:24:20.736000000
        NUMBER_OF_FRAMES: 68473
        NUMBER_OF_BYTES : 35293844
        _STATISTICS_WRITING_APP: mkvpropedit v66.0.0 ('Josie') 64-bit
        _STATISTICS_WRITING_DATE_UTC: 2025-06-06 08:41:21
        encoder         : Lavc61.19.100 pcm_s16le
frame=  161 fps=0.0 q=-0.0 size=N/A time=00:00:06.71 bitrate=N/A speed=12.9x    frame=  354 fps=343 q=-0.0 size=N/A time=00:00:14.76 bitrate=N/A speed=14.3x    frame=  550 fps=355 q=-0.0 size=N/A time=00:00:22.93 bitrate=N/A speed=14.8x    frame=  761 fps=369 q=-0.0 size=N/A time=00:00:31.74 bitrate=N/A speed=15.4x    frame= 1019 fps=394 q=-0.0 size=N/A time=00:00:42.50 bitrate=N/A speed=16.5x    frame= 1247 fps=404 q=-0.0 size=N/A time=00:00:52.01 bitrate=N/A speed=16.8x    frame= 1482 fps=410 q=-0.0 size=N/A time=00:01:01.81 bitrate=N/A speed=17.1x    frame= 1751 fps=425 q=-0.0 size=N/A time=00:01:13.03 bitrate=N/A speed=17.7x    frame= 1959 fps=422 q=-0.0 size=N/A time=00:01:21.70 bitrate=N/A speed=17.6x    frame= 2218 fps=430 q=-0.0 size=N/A time=00:01:32.50 bitrate=N/A speed=17.9x    frame= 2430 fps=428 q=-0.0 size=N/A time=00:01:41.35 bitrate=N/A speed=17.9x    frame= 2601 fps=420 q=-0.0 size=N/A time=00:01:48.48 bitrate=N/A speed=17.5x    frame= 2806 fps=418 q=-0.0 size=N/A time=00:01:57.03 bitrate=N/A speed=17.4x    frame= 3001 fps=416 q=-0.0 size=N/A time=00:02:05.16 bitrate=N/A speed=17.3x    frame= 3224 fps=417 q=-0.0 size=N/A time=00:02:14.46 bitrate=N/A speed=17.4x    frame= 3468 fps=420 q=-0.0 size=N/A time=00:02:24.64 bitrate=N/A speed=17.5x    frame= 3700 fps=422 q=-0.0 size=N/A time=00:02:34.32 bitrate=N/A speed=17.6x    frame= 3870 fps=417 q=-0.0 size=N/A time=00:02:41.41 bitrate=N/A speed=17.4x    frame= 4007 fps=409 q=-0.0 size=N/A time=00:02:47.12 bitrate=N/A speed=17.1x    frame= 4184 fps=406 q=-0.0 size=N/A time=00:02:54.50 bitrate=N/A speed=16.9x    frame= 4399 fps=406 q=-0.0 size=N/A time=00:03:03.47 bitrate=N/A speed=16.9x    frame= 4542 fps=400 q=-0.0 size=N/A time=00:03:09.43 bitrate=N/A speed=16.7x    frame= 4740 fps=399 q=-0.0 size=N/A time=00:03:17.69 bitrate=N/A speed=16.7x    frame= 4985 fps=403 q=-0.0 size=N/A time=00:03:27.91 bitrate=N/A speed=16.8x    frame= 5272 fps=409 q=-0.0 size=N/A time=00:03:39.88 bitrate=N/A speed=  17x    frame= 5516 fps=411 q=-0.0 size=N/A time=00:03:50.06 bitrate=N/A speed=17.2x    frame= 5725 fps=411 q=-0.0 size=N/A time=00:03:58.78 bitrate=N/A speed=17.1x    frame= 5999 fps=415 q=-0.0 size=N/A time=00:04:10.20 bitrate=N/A speed=17.3x    frame= 6254 fps=418 q=-0.0 size=N/A time=00:04:20.84 bitrate=N/A speed=17.4x    frame= 6528 fps=422 q=-0.0 size=N/A time=00:04:32.27 bitrate=N/A speed=17.6x    frame= 6794 fps=425 q=-0.0 size=N/A time=00:04:43.36 bitrate=N/A speed=17.7x    frame= 7006 fps=425 q=-0.0 size=N/A time=00:04:52.20 bitrate=N/A speed=17.7x    frame= 7215 fps=424 q=-0.0 size=N/A time=00:05:00.92 bitrate=N/A speed=17.7x    frame= 7412 fps=423 q=-0.0 size=N/A time=00:05:09.14 bitrate=N/A speed=17.6x    frame= 7593 fps=421 q=-0.0 size=N/A time=00:05:16.69 bitrate=N/A speed=17.5x    frame= 7804 fps=421 q=-0.0 size=N/A time=00:05:25.49 bitrate=N/A speed=17.5x    frame= 8032 fps=421 q=-0.0 size=N/A time=00:05:35.00 bitrate=N/A speed=17.6x    frame= 8243 fps=421 q=-0.0 size=N/A time=00:05:43.80 bitrate=N/A speed=17.5x    frame= 8495 fps=422 q=-0.0 size=N/A time=00:05:54.31 bitrate=N/A speed=17.6x    frame= 8712 fps=422 q=-0.0 size=N/A time=00:06:03.36 bitrate=N/A speed=17.6x    frame= 8951 fps=423 q=-0.0 size=N/A time=00:06:13.33 bitrate=N/A speed=17.7x    frame= 9150 fps=422 q=-0.0 size=N/A time=00:06:21.63 bitrate=N/A speed=17.6x    frame= 9396 fps=424 q=-0.0 size=N/A time=00:06:31.89 bitrate=N/A speed=17.7x    frame= 9633 fps=424 q=-0.0 size=N/A time=00:06:41.77 bitrate=N/A speed=17.7x    frame= 9868 fps=425 q=-0.0 size=N/A time=00:06:51.57 bitrate=N/A speed=17.7x    frame=10117 fps=427 q=-0.0 size=N/A time=00:07:01.96 bitrate=N/A speed=17.8x    frame=10327 fps=426 q=-0.0 size=N/A time=00:07:10.72 bitrate=N/A speed=17.8x    frame=10591 fps=428 q=-0.0 size=N/A time=00:07:21.73 bitrate=N/A speed=17.8x    frame=10801 fps=428 q=-0.0 size=N/A time=00:07:30.49 bitrate=N/A speed=17.8x    frame=11074 fps=429 q=-0.0 size=N/A time=00:07:41.87 bitrate=N/A speed=17.9x    frame=11340 fps=431 q=-0.0 size=N/A time=00:07:52.97 bitrate=N/A speed=  18x    frame=11564 fps=431 q=-0.0 size=N/A time=00:08:02.31 bitrate=N/A speed=  18x    frame=11810 fps=432 q=-0.0 size=N/A time=00:08:12.57 bitrate=N/A speed=  18x    frame=12034 fps=432 q=-0.0 size=N/A time=00:08:21.91 bitrate=N/A speed=  18x    frame=12238 fps=432 q=-0.0 size=N/A time=00:08:30.42 bitrate=N/A speed=  18x    frame=12429 fps=430 q=-0.0 size=N/A time=00:08:38.39 bitrate=N/A speed=17.9x    frame=12671 fps=431 q=-0.0 size=N/A time=00:08:48.48 bitrate=N/A speed=  18x    frame=12859 fps=430 q=-0.0 size=N/A time=00:08:56.32 bitrate=N/A speed=17.9x    frame=13112 fps=431 q=-0.0 size=N/A time=00:09:06.87 bitrate=N/A speed=  18x    frame=13365 fps=432 q=-0.0 size=N/A time=00:09:17.43 bitrate=N/A speed=  18x    frame=13609 fps=433 q=-0.0 size=N/A time=00:09:27.60 bitrate=N/A speed=  18x    frame=13829 fps=433 q=-0.0 size=N/A time=00:09:36.78 bitrate=N/A speed=  18x    frame=14069 fps=433 q=-0.0 size=N/A time=00:09:46.79 bitrate=N/A speed=18.1x    frame=14312 fps=434 q=-0.0 size=N/A time=00:09:56.92 bitrate=N/A speed=18.1x    frame=14535 fps=434 q=-0.0 size=N/A time=00:10:06.23 bitrate=N/A speed=18.1x    frame=14754 fps=434 q=-0.0 size=N/A time=00:10:15.36 bitrate=N/A speed=18.1x    frame=14985 fps=434 q=-0.0 size=N/A time=00:10:24.99 bitrate=N/A speed=18.1x    frame=15232 fps=434 q=-0.0 size=N/A time=00:10:35.30 bitrate=N/A speed=18.1x    frame=15434 fps=434 q=-0.0 size=N/A time=00:10:43.72 bitrate=N/A speed=18.1x    frame=15648 fps=433 q=-0.0 size=N/A time=00:10:52.65 bitrate=N/A speed=18.1x    frame=15850 fps=433 q=-0.0 size=N/A time=00:11:01.07 bitrate=N/A speed=18.1x    frame=16043 fps=432 q=-0.0 size=N/A time=00:11:09.12 bitrate=N/A speed=  18x    frame=16264 fps=432 q=-0.0 size=N/A time=00:11:18.34 bitrate=N/A speed=  18x    frame=16464 fps=431 q=-0.0 size=N/A time=00:11:26.68 bitrate=N/A speed=  18x    frame=16687 fps=431 q=-0.0 size=N/A time=00:11:35.98 bitrate=N/A speed=  18x    frame=16913 fps=432 q=-0.0 size=N/A time=00:11:45.41 bitrate=N/A speed=  18x    frame=17209 fps=433 q=-0.0 size=N/A time=00:11:57.75 bitrate=N/A speed=18.1x    frame=17387 fps=432 q=-0.0 size=N/A time=00:12:05.18 bitrate=N/A speed=  18x    frame=17595 fps=432 q=-0.0 size=N/A time=00:12:13.85 bitrate=N/A speed=  18x    frame=17754 fps=430 q=-0.0 size=N/A time=00:12:20.48 bitrate=N/A speed=17.9x    frame=17939 fps=430 q=-0.0 size=N/A time=00:12:28.20 bitrate=N/A speed=17.9x    frame=18159 fps=429 q=-0.0 size=N/A time=00:12:37.38 bitrate=N/A speed=17.9x    frame=18368 fps=429 q=-0.0 size=N/A time=00:12:46.09 bitrate=N/A speed=17.9x    frame=18556 fps=428 q=-0.0 size=N/A time=00:12:53.93 bitrate=N/A speed=17.9x    frame=18763 fps=428 q=-0.0 size=N/A time=00:13:02.57 bitrate=N/A speed=17.9x    frame=18968 fps=428 q=-0.0 size=N/A time=00:13:11.12 bitrate=N/A speed=17.8x    frame=19169 fps=427 q=-0.0 size=N/A time=00:13:19.50 bitrate=N/A speed=17.8x    frame=19394 fps=427 q=-0.0 size=N/A time=00:13:28.89 bitrate=N/A speed=17.8x    frame=19655 fps=428 q=-0.0 size=N/A time=00:13:39.77 bitrate=N/A speed=17.9x    frame=19898 fps=429 q=-0.0 size=N/A time=00:13:49.91 bitrate=N/A speed=17.9x    frame=20123 fps=429 q=-0.0 size=N/A time=00:13:59.29 bitrate=N/A speed=17.9x    frame=20323 fps=428 q=-0.0 size=N/A time=00:14:07.63 bitrate=N/A speed=17.9x    frame=20565 fps=429 q=-0.0 size=N/A time=00:14:17.73 bitrate=N/A speed=17.9x    frame=20809 fps=429 q=-0.0 size=N/A time=00:14:27.90 bitrate=N/A speed=17.9x    frame=21042 fps=429 q=-0.0 size=N/A time=00:14:37.62 bitrate=N/A speed=17.9x    frame=21215 fps=429 q=-0.0 size=N/A time=00:14:44.84 bitrate=N/A speed=17.9x    frame=21417 fps=428 q=-0.0 size=N/A time=00:14:53.26 bitrate=N/A speed=17.9x    frame=21538 fps=426 q=-0.0 size=N/A time=00:14:58.31 bitrate=N/A speed=17.8x    frame=21773 fps=426 q=-0.0 size=N/A time=00:15:08.11 bitrate=N/A speed=17.8x    frame=22015 fps=427 q=-0.0 size=N/A time=00:15:18.20 bitrate=N/A speed=17.8x    frame=22204 fps=426 q=-0.0 size=N/A time=00:15:26.09 bitrate=N/A speed=17.8x    frame=22413 fps=426 q=-0.0 size=N/A time=00:15:34.80 bitrate=N/A speed=17.8x    frame=22638 fps=426 q=-0.0 size=N/A time=00:15:44.19 bitrate=N/A speed=17.8x    frame=22805 fps=425 q=-0.0 size=N/A time=00:15:51.15 bitrate=N/A speed=17.7x    frame=23031 fps=425 q=-0.0 size=N/A time=00:16:00.58 bitrate=N/A speed=17.7x    frame=23232 fps=425 q=-0.0 size=N/A time=00:16:08.96 bitrate=N/A speed=17.7x    frame=23467 fps=425 q=-0.0 size=N/A time=00:16:18.76 bitrate=N/A speed=17.7x    frame=23687 fps=425 q=-0.0 size=N/A time=00:16:27.94 bitrate=N/A speed=17.7x    frame=23941 fps=426 q=-0.0 size=N/A time=00:16:38.53 bitrate=N/A speed=17.8x    frame=24119 fps=425 q=-0.0 size=N/A time=00:16:45.96 bitrate=N/A speed=17.7x    frame=24349 fps=425 q=-0.0 size=N/A time=00:16:55.55 bitrate=N/A speed=17.7x    frame=24571 fps=425 q=-0.0 size=N/A time=00:17:04.81 bitrate=N/A speed=17.7x    frame=24807 fps=426 q=-0.0 size=N/A time=00:17:14.65 bitrate=N/A speed=17.8x    frame=25067 fps=426 q=-0.0 size=N/A time=00:17:25.50 bitrate=N/A speed=17.8x    frame=25344 fps=427 q=-0.0 size=N/A time=00:17:37.05 bitrate=N/A speed=17.8x    frame=25621 fps=428 q=-0.0 size=N/A time=00:17:48.60 bitrate=N/A speed=17.9x    frame=25852 fps=429 q=-0.0 size=N/A time=00:17:58.24 bitrate=N/A speed=17.9x    frame=26090 fps=429 q=-0.0 size=N/A time=00:18:08.17 bitrate=N/A speed=17.9x    frame=26365 fps=430 q=-0.0 size=N/A time=00:18:19.64 bitrate=N/A speed=17.9x    frame=26607 fps=430 q=-0.0 size=N/A time=00:18:29.73 bitrate=N/A speed=17.9x    frame=26870 fps=431 q=-0.0 size=N/A time=00:18:40.70 bitrate=N/A speed=  18x    frame=27122 fps=431 q=-0.0 size=N/A time=00:18:51.21 bitrate=N/A speed=  18x    frame=27343 fps=431 q=-0.0 size=N/A time=00:19:00.43 bitrate=N/A speed=  18x    frame=27595 fps=431 q=-0.0 size=N/A time=00:19:10.94 bitrate=N/A speed=  18x    frame=27825 fps=432 q=-0.0 size=N/A time=00:19:20.53 bitrate=N/A speed=  18x    frame=28101 fps=432 q=-0.0 size=N/A time=00:19:32.04 bitrate=N/A speed=  18x    frame=28295 fps=432 q=-0.0 size=N/A time=00:19:40.13 bitrate=N/A speed=  18x    frame=28514 fps=432 q=-0.0 size=N/A time=00:19:49.27 bitrate=N/A speed=  18x    frame=28751 fps=432 q=-0.0 size=N/A time=00:19:59.15 bitrate=N/A speed=  18x    frame=28970 fps=432 q=-0.0 size=N/A time=00:20:08.29 bitrate=N/A speed=  18x    frame=29202 fps=432 q=-0.0 size=N/A time=00:20:17.96 bitrate=N/A speed=  18x    frame=29445 fps=432 q=-0.0 size=N/A time=00:20:28.10 bitrate=N/A speed=  18x    frame=29652 fps=432 q=-0.0 size=N/A time=00:20:36.73 bitrate=N/A speed=  18x    frame=29906 fps=433 q=-0.0 size=N/A time=00:20:47.32 bitrate=N/A speed=  18x    frame=30157 fps=433 q=-0.0 size=N/A time=00:20:57.79 bitrate=N/A speed=18.1x    frame=30419 fps=434 q=-0.0 size=N/A time=00:21:08.72 bitrate=N/A speed=18.1x    frame=30648 fps=434 q=-0.0 size=N/A time=00:21:18.27 bitrate=N/A speed=18.1x    frame=30914 fps=434 q=-0.0 size=N/A time=00:21:29.37 bitrate=N/A speed=18.1x    frame=31113 fps=434 q=-0.0 size=N/A time=00:21:37.67 bitrate=N/A speed=18.1x    frame=31352 fps=434 q=-0.0 size=N/A time=00:21:47.63 bitrate=N/A speed=18.1x    frame=31560 fps=434 q=-0.0 size=N/A time=00:21:56.31 bitrate=N/A speed=18.1x    frame=31728 fps=433 q=-0.0 size=N/A time=00:22:03.32 bitrate=N/A speed=18.1x    frame=31913 fps=433 q=-0.0 size=N/A time=00:22:11.03 bitrate=N/A speed=  18x    frame=32116 fps=432 q=-0.0 size=N/A time=00:22:19.50 bitrate=N/A speed=  18x    frame=32290 fps=432 q=-0.0 size=N/A time=00:22:26.76 bitrate=N/A speed=  18x    frame=32550 fps=432 q=-0.0 size=N/A time=00:22:37.60 bitrate=N/A speed=  18x    frame=32775 fps=432 q=-0.0 size=N/A time=00:22:46.99 bitrate=N/A speed=  18x    frame=33011 fps=433 q=-0.0 size=N/A time=00:22:56.83 bitrate=N/A speed=  18x    frame=33229 fps=432 q=-0.0 size=N/A time=00:23:05.92 bitrate=N/A speed=  18x    frame=33450 fps=432 q=-0.0 size=N/A time=00:23:15.14 bitrate=N/A speed=  18x    frame=33648 fps=432 q=-0.0 size=N/A time=00:23:23.44 bitrate=N/A speed=  18x    frame=33869 fps=432 q=-0.0 size=N/A time=00:23:32.61 bitrate=N/A speed=  18x    frame=34116 fps=432 q=-0.0 size=N/A time=00:23:42.92 bitrate=N/A speed=  18x    frame=34344 fps=432 q=-0.0 size=N/A time=00:23:52.43 bitrate=N/A speed=  18x    frame=34570 fps=432 q=-0.0 size=N/A time=00:24:01.85 bitrate=N/A speed=  18x    frame=34814 fps=433 q=-0.0 size=N/A time=00:24:12.03 bitrate=N/A speed=  18x    [Parsed_psnr_10 @ 000002ecb03e7540] PSNR y:47.126569 u:49.377229 v:50.161481 average:47.838561 min:38.340860 max:inf
[out#0/null @ 000002ecae184200] video:15037KiB audio:273892KiB subtitle:0KiB other streams:0KiB global headers:0KiB muxing overhead: unknown
frame=34996 fps=433 q=-0.0 Lsize=N/A time=00:24:19.62 bitrate=N/A speed=18.1x    
